<svg xmlns="http://www.w3.org/2000/svg" width="1025" height="210" viewBox="0 0 1025 210" fill="none"><g clip-path="url(#clip0_599_12)"><path d="M3.56982 123.57C4.76982 126.75 6.29988 131.03 7.62988 134.15C13.1999 145.75 13.4198 146.15 17.3898 152.42C20.7498 157.21 25.4498 163.42 29.1398 167.93L34.3699 173.48C86.4599 218.72 215.82 126.98 235.56 104.48C236.03 100.9 236.67 96.1199 236.98 92.4799C237.43 80.6699 237.47 79.7199 236.87 71.6799C236.38 67.6799 235.73 62.3499 235.06 58.3799C116.28 156.11 19.4698 170.98 3.56982 123.56" fill="url(#paint0_linear_599_12)"></path><path d="M60.5698 199.56C62.9698 200.56 66.1498 201.95 68.5698 202.85C78.4998 206.01 78.8898 206.13 85.0298 207.31C94.7798 208.74 95.5698 208.86 102.15 209.04C104.7 209.04 108.15 209.04 110.65 208.86C144.18 205.51 172.97 183.51 178.3 178.24L179.19 177.35C181.46 174.95 181.46 174.95 182.69 173.56C185.21 170.61 185.26 170.56 186.53 168.92C190.894 163.308 194.692 157.279 197.87 150.92C187.59 162.92 106.44 217.45 60.5498 199.58" fill="url(#paint1_linear_599_12)"></path><path d="M37.5701 29.31C22.8701 39.01 13.6901 59.18 30.2201 62.73C40.1701 64.86 58.1201 60.39 78.2201 50.73C106.58 37.15 135.04 15.42 143.09 9.07997C143.538 8.69533 144.009 8.33801 144.5 8.00997L139.82 6.18997C129.89 3.00997 129.5 2.88997 123.38 1.71997C113.48 0.249971 112.89 0.159971 106.59 -0.0300293C93.6901 14.06 36.5301 48.04 35.9001 33.81C35.8201 32.07 37.0801 30.05 37.5501 29.28" fill="url(#paint2_linear_599_12)"></path><path d="M27.3897 34.6301C25.2915 36.2041 23.4088 38.0465 21.7898 40.1101C16.9997 46.2793 12.9018 52.956 9.56979 60.0201C6.94869 65.7399 4.79505 71.6626 3.12984 77.7301C1.12984 86.3501 0.859844 87.7301 0.129844 94.9701C-1.64016 130.14 28.3998 131.43 53.9098 126.31C112.91 114.48 169.7 74.3101 191.09 59.2401C195.59 56.0401 195.59 56.0401 196.61 55.5501L193.05 49.3801C186.88 40.2801 186.64 39.9301 182.47 35.1901C179 31.5701 174.18 26.9201 170.47 23.5901C169.06 24.3501 169.06 24.3501 164.17 27.9201C146.17 41.0401 98.5298 75.9201 54.2998 86.6201C19.7898 94.9801 3.29977 85.9301 10.2998 62.3901C13.0698 53.0701 19.4798 42.7001 27.4698 34.6301" fill="url(#paint3_linear_599_12)"></path><path d="M480.07 44.3101C478.482 43.4464 476.782 42.8038 475.02 42.4001C472.593 41.8995 470.118 41.6748 467.64 41.7301C463.142 41.6657 458.699 42.7206 454.71 44.8001C450.773 46.9241 447.447 50.0229 445.05 53.8001C442.289 58.1961 440.215 62.988 438.9 68.0101C437.446 73.054 436.679 78.2711 436.62 83.5201C436.62 89.1801 437.79 93.5501 440.13 96.6301C441.185 98.0993 442.582 99.2882 444.201 100.093C445.821 100.899 447.612 101.296 449.42 101.25C450.762 101.26 452.102 101.136 453.42 100.88C454.414 100.69 455.386 100.399 456.32 100.01L461.24 75.8901H451.02L453.48 63.9501H482.16L472.68 109.86C469.261 111.607 465.616 112.872 461.85 113.62C457.353 114.519 452.776 114.951 448.19 114.91C438.104 114.91 430.35 112.12 424.93 106.54C419.51 100.96 416.803 93.2468 416.81 83.4001C416.849 76.0364 418.137 68.7327 420.62 61.8001C422.873 55.0287 426.403 48.7521 431.02 43.3101C435.294 38.3715 440.603 34.4349 446.57 31.7801C452.671 29.0801 459.279 27.7162 465.95 27.7801C470.152 27.7384 474.345 28.1711 478.45 29.0701C481.762 29.7656 484.939 30.9914 487.86 32.7001L480.07 44.3101Z" fill="#00629D"></path><path d="M535.21 113.69L533.73 95.59H508.38L499.15 113.69H480.44L525.49 29.01H545.05L554.9 113.69H535.21ZM531.64 56.45V48.02C531.654 47.4243 531.613 46.8285 531.52 46.24C531.1 47.39 530.67 48.62 530.22 49.93C529.374 52.1536 528.41 54.3301 527.33 56.45L513.67 84.15H533.49L531.64 56.45Z" fill="#00629D"></path><path d="M629.73 66.3099C627.257 69.1451 624.297 71.5157 620.99 73.3099C617.862 75.023 614.439 76.1291 610.9 76.5699L625.9 113.74H604.61L591.8 75.9499L583.68 113.74H564.11L580.85 32.7399C584.715 31.1353 588.737 29.9388 592.85 29.1699C597.535 28.2575 602.297 27.8053 607.07 27.8199C616.67 27.8199 623.93 29.6866 628.85 33.4199C631.232 35.155 633.151 37.4484 634.44 40.0986C635.728 42.7489 636.347 45.675 636.24 48.6199C636.317 55.1161 634 61.4133 629.73 66.3099ZM605.36 39.2299C603.187 39.2143 601.025 39.5521 598.96 40.2299L592.69 70.8699C594.137 71.2383 595.628 71.4066 597.12 71.3699C603.187 71.3699 607.52 69.7699 610.12 66.5699C612.424 63.9311 614.203 60.8763 615.36 57.5699C616.22 54.781 616.655 51.8784 616.65 48.9599C616.677 42.4733 612.913 39.2266 605.36 39.2199V39.2299Z" fill="#00629D"></path><path d="M684.75 113.69L683.27 95.59H657.92L648.69 113.69H629.98L674.98 29.01H694.57L704.42 113.69H684.75ZM681.18 56.45V48.02C681.197 47.4238 681.153 46.8275 681.05 46.24C680.643 47.3867 680.213 48.6167 679.76 49.93C678.914 52.1536 677.95 54.3301 676.87 56.45L663.21 84.15H683.03L681.18 56.45Z" fill="#00629D"></path><path d="M777.57 113.69H762.92L744.46 66.18C743.64 63.96 743.043 62.2167 742.67 60.95C742.3 59.68 741.96 58.47 741.67 57.32C741.42 58.47 741.18 59.84 740.93 61.44C740.68 63.04 740.35 64.74 739.93 66.55L730.2 113.69H713.46L730.94 29.01H747.94L764.99 72.31C765.99 74.86 766.66 76.72 766.99 77.91C767.32 79.1 767.63 79.99 767.79 80.56C768.04 79 768.24 77.75 768.41 76.8C768.58 75.85 768.9 74.28 769.41 72.07L778.27 28.99H795.02L777.57 113.69Z" fill="#00629D"></path><path d="M853.49 42.42H838.84L824.3 113.69H804.38L818.91 42.42H804.34L807.07 29.02H856.2L853.49 42.42Z" fill="#00629D"></path><path d="M871.7 113.69H851.64L869.12 29.01H889.18L871.7 113.69Z" fill="#00629D"></path><path d="M935.83 113.69L934.35 95.59H908.99L899.76 113.69H881.05L926.1 29.01H945.67L955.52 113.69H935.83ZM932.26 56.45V48.02C932.276 47.4238 932.233 46.8275 932.13 46.24C931.723 47.3867 931.293 48.6167 930.84 49.93C929.994 52.1536 929.03 54.3301 927.95 56.45L914.29 84.15H934.1L932.26 56.45Z" fill="#00629D"></path><path d="M1017.92 44.64C1016.36 43.6617 1014.68 42.895 1012.92 42.36C1010.77 41.7212 1008.53 41.411 1006.28 41.44C1002.34 41.44 999.243 42.67 996.99 45.13C994.753 47.5318 993.538 50.7088 993.6 53.99C993.6 57.2767 997.397 61.4434 1004.99 66.49C1012.58 71.5367 1016.36 77.4767 1016.32 84.31C1016.32 91.8567 1013.55 98.8567 1008.01 105.31C1002.47 111.763 993.99 114.967 982.57 114.92C972.717 114.92 965.497 113.277 960.91 109.99L968.17 96.82C969.746 97.8914 971.495 98.683 973.34 99.16C975.612 99.8316 977.971 100.169 980.34 100.16C984.105 100.311 987.785 99.0121 990.62 96.53C991.934 95.3466 992.972 93.8902 993.663 92.2629C994.354 90.6356 994.681 88.8769 994.62 87.11C994.62 83.83 991.113 79.7067 984.1 74.74C977.087 69.7734 973.577 63.9234 973.57 57.19C973.57 49.97 976.3 43.2634 981.76 37.07C987.22 30.8767 995.077 27.78 1005.33 27.78C1009.06 27.7164 1012.78 28.1502 1016.4 29.07C1019.29 29.8268 1022.04 31.0531 1024.53 32.7L1017.92 44.64Z" fill="#00629D"></path><path d="M371.1 42.42H347.84L343.41 63.96H363.72L361.01 76.96H340.7L333.19 113.64H313.13L330.57 29.01H373.89L371.1 42.42Z" fill="#1A92D0"></path><path d="M389.81 113.69H369.75L387.22 29.01H407.28L389.81 113.69Z" fill="#1A92D0"></path><path d="M318.39 183.22V144.8H322.86V179.23H339.91V183.23L318.39 183.22Z" fill="#58595B"></path><path d="M356.57 153.95C360.01 153.95 362.57 154.72 364.22 156.26C365.87 157.8 366.72 160.26 366.72 163.64V183.22H363.57L362.73 178.96H362.51C361.782 179.943 360.935 180.833 359.99 181.61C359.1 182.328 358.082 182.871 356.99 183.21C355.618 183.6 354.196 183.782 352.77 183.75C351.166 183.778 349.574 183.464 348.1 182.83C346.778 182.241 345.664 181.269 344.9 180.04C344.07 178.606 343.664 176.966 343.73 175.31C343.676 174.006 343.962 172.71 344.56 171.549C345.157 170.388 346.047 169.403 347.14 168.69C349.42 167.15 352.89 166.31 357.55 166.17L362.55 165.95V164.19C362.55 161.71 362.01 159.96 360.95 158.96C359.69 157.903 358.072 157.369 356.43 157.47C354.969 157.464 353.515 157.683 352.12 158.12C350.789 158.545 349.489 159.063 348.23 159.67L346.89 156.36C348.318 155.647 349.812 155.075 351.35 154.65C353.051 154.184 354.807 153.948 356.57 153.95ZM362.41 169.03L358.02 169.21C354.42 169.35 351.887 169.937 350.42 170.97C349.71 171.454 349.134 172.111 348.748 172.879C348.361 173.647 348.176 174.501 348.21 175.36C348.155 176.045 348.263 176.733 348.523 177.369C348.784 178.005 349.19 178.57 349.71 179.02C350.87 179.858 352.281 180.275 353.71 180.2C355.995 180.294 358.234 179.535 359.99 178.07C361.623 176.65 362.44 174.52 362.44 171.68L362.41 169.03Z" fill="#58595B"></path><path d="M406.8 163.09H420.23V181.72C418.204 182.407 416.123 182.919 414.01 183.25C411.649 183.598 409.266 183.765 406.88 183.75C403.358 183.865 399.868 183.04 396.77 181.36C394.043 179.776 391.866 177.397 390.53 174.54C389.038 171.235 388.31 167.635 388.4 164.01C388.317 160.4 389.124 156.825 390.75 153.6C392.285 150.675 394.656 148.274 397.56 146.7C400.865 144.991 404.55 144.148 408.27 144.25C410.312 144.237 412.349 144.435 414.35 144.84C416.187 145.206 417.98 145.766 419.7 146.51L417.99 150.4C416.471 149.749 414.903 149.221 413.3 148.82C411.572 148.377 409.794 148.156 408.01 148.16C405.193 148.095 402.41 148.786 399.95 150.16C397.734 151.438 395.951 153.35 394.83 155.65C393.586 158.275 392.976 161.156 393.05 164.06C392.986 166.927 393.514 169.776 394.6 172.43C395.584 174.741 397.28 176.678 399.44 177.96C402.025 179.385 404.951 180.077 407.9 179.96C409.396 179.977 410.89 179.877 412.37 179.66C413.512 179.481 414.644 179.241 415.76 178.94V167.08H406.76L406.8 163.09Z" fill="#58595B"></path><path d="M439.62 153.95C443.06 153.95 445.61 154.72 447.27 156.26C448.93 157.8 449.763 160.26 449.77 163.64V183.22H446.57L445.73 178.96H445.57C444.836 179.941 443.986 180.831 443.04 181.61C442.151 182.329 441.133 182.872 440.04 183.21C438.668 183.6 437.246 183.782 435.82 183.75C434.216 183.778 432.624 183.464 431.15 182.83C429.828 182.241 428.713 181.269 427.95 180.04C427.12 178.606 426.714 176.966 426.78 175.31C426.725 174.004 427.011 172.707 427.611 171.546C428.211 170.385 429.103 169.4 430.2 168.69C432.473 167.15 435.94 166.31 440.6 166.17L445.6 165.95V164.19C445.6 161.71 445.07 159.96 444 158.96C442.74 157.903 441.122 157.369 439.48 157.47C438.019 157.464 436.565 157.683 435.17 158.12C433.839 158.545 432.539 159.063 431.28 159.67L429.94 156.36C431.368 155.647 432.862 155.075 434.4 154.65C436.101 154.184 437.857 153.949 439.62 153.95ZM445.46 169.03L441.07 169.21C437.477 169.35 434.943 169.937 433.47 170.97C432.761 171.455 432.187 172.112 431.802 172.88C431.417 173.648 431.234 174.502 431.27 175.36C431.216 176.044 431.322 176.731 431.581 177.367C431.84 178.002 432.244 178.568 432.76 179.02C433.92 179.858 435.331 180.275 436.76 180.2C439.045 180.294 441.284 179.535 443.04 178.07C444.673 176.65 445.49 174.52 445.49 171.68L445.46 169.03Z" fill="#58595B"></path><path d="M471.84 153.89C472.42 153.89 473.03 153.89 473.66 153.98C474.29 154.07 474.85 154.13 475.34 154.23L474.79 158.28C474.27 158.15 473.742 158.053 473.21 157.99C472.669 157.924 472.125 157.891 471.58 157.89C470.453 157.883 469.338 158.118 468.31 158.58C467.28 159.05 466.36 159.732 465.61 160.58C464.813 161.498 464.198 162.561 463.8 163.71C463.346 165.015 463.122 166.389 463.14 167.77V183.22H458.76V154.42H462.38L462.86 159.73H463.04C463.627 158.665 464.35 157.68 465.19 156.8C466.028 155.919 467.022 155.201 468.12 154.68C469.285 154.142 470.557 153.872 471.84 153.89Z" fill="#58595B"></path><path d="M491.57 153.95C494.997 153.95 497.547 154.72 499.22 156.26C500.893 157.8 501.723 160.26 501.71 163.64V183.22H498.53L497.69 178.96H497.48C496.746 179.939 495.9 180.828 494.96 181.61C494.069 182.327 493.052 182.87 491.96 183.21C490.588 183.6 489.166 183.782 487.74 183.75C486.139 183.778 484.55 183.464 483.08 182.83C481.754 182.244 480.635 181.272 479.87 180.04C479.04 178.606 478.634 176.966 478.7 175.31C478.645 174.004 478.932 172.707 479.531 171.546C480.131 170.385 481.023 169.401 482.12 168.69C484.4 167.15 487.87 166.31 492.53 166.17L497.53 165.95V164.19C497.53 161.71 497 159.96 495.93 158.96C494.671 157.901 493.052 157.367 491.41 157.47C489.949 157.465 488.495 157.684 487.1 158.12C485.77 158.547 484.47 159.065 483.21 159.67L481.87 156.36C483.302 155.649 484.799 155.076 486.34 154.65C488.044 154.182 489.803 153.947 491.57 153.95ZM497.4 169.03L493.01 169.21C489.417 169.35 486.887 169.937 485.42 170.97C484.71 171.454 484.134 172.111 483.748 172.879C483.361 173.647 483.176 174.501 483.21 175.36C483.155 176.045 483.263 176.733 483.523 177.369C483.784 178.005 484.19 178.57 484.71 179.02C485.87 179.858 487.281 180.275 488.71 180.2C490.995 180.292 493.233 179.533 494.99 178.07C496.623 176.65 497.437 174.52 497.43 171.68L497.4 169.03Z" fill="#58595B"></path><path d="M524.3 153.89C527.72 153.89 530.303 154.727 532.05 156.4C533.81 158.07 534.68 160.76 534.68 164.46V183.22H530.37V164.75C530.518 162.811 529.933 160.888 528.73 159.36C528.069 158.727 527.282 158.241 526.421 157.933C525.559 157.624 524.642 157.501 523.73 157.57C520.54 157.57 518.29 158.47 517 160.28C515.71 162.09 515 164.7 515 168.14V183.22H510.64V154.42H514.16L514.82 158.57H515.06C515.657 157.568 516.449 156.698 517.39 156.01C518.355 155.311 519.43 154.777 520.57 154.43C521.779 154.064 523.037 153.882 524.3 153.89Z" fill="#58595B"></path><path d="M552.97 180.17C553.71 180.169 554.449 180.108 555.18 179.99C555.807 179.902 556.423 179.751 557.02 179.54V182.93C556.339 183.207 555.627 183.402 554.9 183.51C554.029 183.667 553.145 183.748 552.26 183.75C550.837 183.768 549.425 183.496 548.11 182.95C546.84 182.395 545.786 181.44 545.11 180.23C544.28 178.588 543.893 176.757 543.99 174.92V157.83H539.89V155.71L544.02 154L545.75 147.74H548.38V154.42H556.82V157.83H548.38V174.78C548.267 176.24 548.714 177.688 549.63 178.83C550.057 179.281 550.576 179.635 551.153 179.866C551.73 180.098 552.349 180.201 552.97 180.17Z" fill="#58595B"></path><path d="M572.66 141.99V142.51C572.213 143.145 571.732 143.756 571.22 144.34C570.62 145.05 569.95 145.79 569.22 146.57C568.49 147.35 567.75 148.09 567 148.79C566.25 149.49 565.57 150.1 564.94 150.61H562.02V149.98C562.58 149.31 563.2 148.51 563.86 147.57C564.52 146.63 565.18 145.67 565.81 144.68C566.44 143.69 566.96 142.79 567.38 141.99H572.66ZM567.22 183.22H562.85V154.42H567.22V183.22Z" fill="#58595B"></path><path d="M587.22 153.95C590.647 153.95 593.197 154.72 594.87 156.26C596.544 157.8 597.373 160.26 597.36 163.64V183.22H594.18L593.34 178.96H593.13C592.396 179.939 591.551 180.828 590.61 181.61C589.719 182.327 588.702 182.87 587.61 183.21C586.238 183.6 584.816 183.782 583.39 183.75C581.789 183.778 580.2 183.464 578.73 182.83C577.404 182.244 576.285 181.272 575.52 180.04C574.69 178.606 574.284 176.966 574.35 175.31C574.295 174.004 574.581 172.707 575.181 171.546C575.781 170.385 576.673 169.401 577.77 168.69C580.05 167.15 583.52 166.31 588.18 166.17L593.18 165.95V164.19C593.18 161.71 592.65 159.96 591.58 158.96C590.321 157.901 588.702 157.367 587.06 157.47C585.599 157.465 584.145 157.684 582.75 158.12C581.42 158.547 580.12 159.065 578.86 159.67L577.52 156.36C578.952 155.649 580.449 155.076 581.99 154.65C583.694 154.182 585.453 153.947 587.22 153.95ZM593.05 169.03L588.66 169.21C585.067 169.35 582.537 169.937 581.07 170.97C580.36 171.454 579.784 172.111 579.398 172.879C579.011 173.647 578.826 174.501 578.86 175.36C578.806 176.045 578.913 176.733 579.173 177.369C579.434 178.005 579.841 178.57 580.36 179.02C581.52 179.858 582.931 180.275 584.36 180.2C586.645 180.292 588.883 179.533 590.64 178.07C592.274 176.65 593.087 174.52 593.08 171.68L593.05 169.03Z" fill="#58595B"></path><path d="M645.09 183.22L640.36 171.03H624.96L620.25 183.22H615.73L630.73 144.64H634.73L649.65 183.22H645.09ZM639.02 167.06L634.52 154.94L634.01 153.39C633.77 152.67 633.53 151.93 633.29 151.16C633.05 150.39 632.84 149.77 632.68 149.29C632.51 150.01 632.32 150.73 632.12 151.44C631.92 152.15 631.72 152.8 631.53 153.44C631.34 154.08 631.17 154.55 631.03 154.97L626.45 167.09L639.02 167.06ZM640.3 132.34V132.87C639.856 133.502 639.379 134.109 638.87 134.69C638.27 135.4 637.6 136.15 636.87 136.93C636.14 137.71 635.39 138.45 634.65 139.15C633.91 139.85 633.22 140.45 632.59 140.96H629.67V140.31C630.23 139.65 630.84 138.84 631.51 137.91C632.18 136.98 632.82 136.01 633.45 135.02C634.08 134.03 634.61 133.13 635.03 132.32L640.3 132.34Z" fill="#58595B"></path><path d="M662.41 196.15C658.623 196.15 655.707 195.447 653.66 194.04C652.68 193.4 651.881 192.518 651.341 191.479C650.802 190.441 650.54 189.28 650.58 188.11C650.541 186.404 651.156 184.747 652.3 183.48C653.574 182.14 655.247 181.249 657.07 180.94C656.309 180.577 655.647 180.035 655.14 179.36C654.611 178.665 654.329 177.813 654.34 176.94C654.321 175.945 654.63 174.972 655.22 174.17C655.959 173.236 656.873 172.455 657.91 171.87C656.391 171.243 655.109 170.151 654.25 168.75C653.29 167.221 652.8 165.445 652.84 163.64C652.785 161.793 653.231 159.965 654.13 158.35C654.998 156.875 656.301 155.705 657.86 155C659.72 154.181 661.738 153.785 663.77 153.84C664.28 153.84 664.77 153.84 665.31 153.9C665.85 153.96 666.31 154.01 666.8 154.09C667.215 154.158 667.625 154.248 668.03 154.36H677.91V157.18L672.6 157.83C673.164 158.581 673.609 159.414 673.92 160.3C674.279 161.332 674.455 162.418 674.44 163.51C674.497 164.797 674.265 166.079 673.761 167.265C673.258 168.45 672.495 169.508 671.53 170.36C669.583 172.047 666.917 172.89 663.53 172.89C662.702 172.888 661.876 172.818 661.06 172.68C660.293 173.066 659.613 173.603 659.06 174.26C658.618 174.832 658.382 175.537 658.39 176.26C658.379 176.506 658.418 176.752 658.506 176.983C658.594 177.213 658.728 177.423 658.9 177.6C659.324 177.968 659.838 178.217 660.39 178.32C661.159 178.48 661.944 178.554 662.73 178.54H667.8C670.94 178.54 673.34 179.2 675.02 180.54C675.873 181.23 676.55 182.113 676.993 183.116C677.437 184.12 677.634 185.215 677.57 186.31C677.629 187.766 677.301 189.211 676.619 190.499C675.938 191.786 674.927 192.87 673.69 193.64C671.07 195.313 667.31 196.15 662.41 196.15ZM662.54 192.74C664.538 192.787 666.533 192.541 668.46 192.01C669.807 191.664 671.031 190.947 671.99 189.94C672.764 189.048 673.181 187.901 673.16 186.72C673.226 185.779 672.945 184.847 672.37 184.1C671.75 183.459 670.933 183.044 670.05 182.92C668.819 182.702 667.57 182.601 666.32 182.62H661.32C660.161 182.594 659.009 182.798 657.93 183.22C657.024 183.574 656.248 184.199 655.71 185.01C655.165 185.891 654.894 186.914 654.93 187.95C654.906 188.669 655.08 189.382 655.433 190.009C655.785 190.637 656.303 191.156 656.93 191.51C658.662 192.429 660.613 192.855 662.57 192.74H662.54ZM663.67 169.74C664.519 169.805 665.371 169.7 666.179 169.43C666.986 169.16 667.731 168.732 668.37 168.17C668.927 167.547 669.354 166.82 669.625 166.03C669.896 165.24 670.007 164.403 669.95 163.57C670.016 162.696 669.909 161.818 669.634 160.985C669.36 160.153 668.923 159.383 668.35 158.72C667.711 158.145 666.963 157.706 666.15 157.427C665.338 157.149 664.477 157.038 663.62 157.1C662.777 157.046 661.931 157.166 661.136 157.454C660.341 157.741 659.614 158.189 659 158.77C657.843 160.122 657.265 161.875 657.39 163.65C657.336 164.475 657.452 165.302 657.733 166.08C658.013 166.858 658.451 167.57 659.02 168.17C659.656 168.719 660.394 169.138 661.192 169.402C661.99 169.667 662.832 169.771 663.67 169.71V169.74Z" fill="#58595B"></path><path d="M685.82 143.64C686.507 143.626 687.173 143.877 687.68 144.34C688.179 144.949 688.451 145.712 688.451 146.5C688.451 147.287 688.179 148.051 687.68 148.66C687.177 149.13 686.509 149.385 685.82 149.37C685.475 149.382 685.131 149.326 684.809 149.204C684.486 149.082 684.191 148.897 683.94 148.66C683.46 148.042 683.199 147.282 683.199 146.5C683.199 145.718 683.46 144.958 683.94 144.34C684.45 143.868 685.126 143.617 685.82 143.64ZM687.95 154.42V183.22H683.57V154.42H687.95Z" fill="#58595B"></path><path d="M701.57 183.22H697.18V142.31H701.57V183.22Z" fill="#58595B"></path><path d="M720.2 154.42H724.88L731.24 171.13C731.6 172.13 731.95 173.06 732.24 173.96C732.53 174.86 732.84 175.72 733.08 176.55C733.319 177.335 733.513 178.133 733.66 178.94H733.84C734.09 178.06 734.44 176.94 734.89 175.48C735.34 174.02 735.84 172.6 736.37 171.11L742.37 154.42H747.07L734.53 187.42C733.938 189.047 733.159 190.601 732.21 192.05C731.385 193.287 730.282 194.314 728.99 195.05C727.585 195.796 726.01 196.165 724.42 196.12C723.687 196.126 722.955 196.076 722.23 195.97C721.68 195.896 721.136 195.786 720.6 195.64V192.21C720.987 192.303 721.457 192.383 722.01 192.45C722.581 192.519 723.155 192.553 723.73 192.55C724.683 192.591 725.631 192.391 726.486 191.968C727.341 191.545 728.075 190.913 728.62 190.13C729.243 189.264 729.747 188.319 730.12 187.32L731.7 183.32L720.2 154.42Z" fill="#58595B"></path><path d="M760.8 193.31C760.026 193.318 759.253 193.258 758.49 193.13C757.903 193.028 757.329 192.86 756.78 192.63V188.82C757.372 189 757.977 189.134 758.59 189.22C759.289 189.324 759.994 189.374 760.7 189.37C761.632 189.377 762.554 189.179 763.4 188.79C764.272 188.366 764.976 187.662 765.4 186.79C765.945 185.586 766.195 184.27 766.13 182.95V144.8H770.63V182.67C770.707 184.737 770.296 186.792 769.43 188.67C768.697 190.172 767.511 191.406 766.04 192.2C764.412 192.999 762.612 193.38 760.8 193.31Z" fill="#58595B"></path><path d="M803.93 154.42V183.22H800.36L799.72 179.22H799.49C798.897 180.212 798.108 181.073 797.17 181.75C796.204 182.441 795.124 182.959 793.98 183.28C790.835 184.138 787.495 183.93 784.48 182.69C782.965 181.983 781.737 180.78 781 179.28C780.154 177.418 779.753 175.384 779.83 173.34V154.42H784.25V172.97C784.101 174.902 784.679 176.821 785.87 178.35C786.53 178.983 787.318 179.468 788.18 179.773C789.042 180.078 789.959 180.196 790.87 180.12C792.654 180.21 794.426 179.791 795.98 178.91C797.278 178.074 798.249 176.817 798.73 175.35C799.335 173.488 799.619 171.537 799.57 169.58V154.42H803.93Z" fill="#58595B"></path><path d="M831.79 175.31C831.845 176.965 831.361 178.594 830.41 179.95C829.39 181.27 827.996 182.253 826.41 182.77C824.445 183.444 822.377 183.766 820.3 183.72C818.545 183.744 816.792 183.583 815.07 183.24C813.728 182.972 812.429 182.521 811.21 181.9V177.9C812.565 178.548 813.973 179.077 815.42 179.48C817.045 179.952 818.728 180.191 820.42 180.19C822.913 180.19 824.717 179.787 825.83 178.98C826.367 178.619 826.803 178.128 827.099 177.553C827.394 176.977 827.539 176.337 827.52 175.69C827.528 174.942 827.293 174.212 826.85 173.61C826.237 172.867 825.469 172.267 824.6 171.85C823.192 171.124 821.735 170.495 820.24 169.97C818.613 169.362 817.02 168.664 815.47 167.88C814.252 167.287 813.191 166.417 812.37 165.34C811.595 164.195 811.209 162.831 811.27 161.45C811.23 160.333 811.487 159.226 812.014 158.241C812.541 157.255 813.319 156.427 814.27 155.84C816.605 154.419 819.309 153.723 822.04 153.84C823.677 153.83 825.311 154.001 826.91 154.35C828.366 154.68 829.788 155.142 831.16 155.73L829.68 159.23C828.445 158.705 827.171 158.273 825.87 157.94C824.525 157.592 823.14 157.417 821.75 157.42C820.141 157.329 818.538 157.675 817.11 158.42C816.616 158.686 816.204 159.082 815.919 159.565C815.633 160.047 815.485 160.599 815.49 161.16C815.46 161.964 815.727 162.751 816.24 163.37C816.921 164.073 817.742 164.624 818.65 164.99C819.75 165.497 821.203 166.093 823.01 166.78C824.615 167.363 826.179 168.055 827.69 168.85C828.878 169.46 829.905 170.34 830.69 171.42C831.455 172.569 831.84 173.93 831.79 175.31Z" fill="#58595B"></path><path d="M848.11 180.17C848.85 180.168 849.589 180.108 850.32 179.99C850.947 179.9 851.563 179.75 852.16 179.54V182.93C851.479 183.206 850.767 183.401 850.04 183.51C849.169 183.667 848.285 183.748 847.4 183.75C845.977 183.769 844.564 183.497 843.25 182.95C841.981 182.393 840.928 181.438 840.25 180.23C839.428 178.585 839.046 176.756 839.14 174.92V157.83H835.04V155.71L839.16 154L840.9 147.74H843.57V154.42H852V157.83H843.57V174.78C843.454 176.238 843.897 177.686 844.81 178.83C845.233 179.275 845.746 179.625 846.315 179.856C846.884 180.087 847.496 180.194 848.11 180.17Z" fill="#58595B"></path><path d="M868.76 153.95C872.2 153.95 874.75 154.72 876.41 156.26C878.07 157.8 878.904 160.26 878.91 163.64V183.22H875.73L874.89 178.96H874.68C873.946 179.939 873.101 180.828 872.16 181.61C871.269 182.327 870.252 182.87 869.16 183.21C867.789 183.6 866.366 183.782 864.94 183.75C863.339 183.779 861.75 183.465 860.28 182.83C858.954 182.244 857.835 181.272 857.07 180.04C856.24 178.606 855.834 176.966 855.9 175.31C855.845 174.004 856.131 172.707 856.731 171.546C857.331 170.385 858.223 169.401 859.32 168.69C861.587 167.15 865.053 166.31 869.72 166.17L874.72 165.95V164.19C874.72 161.71 874.19 159.96 873.12 158.96C871.86 157.903 870.242 157.369 868.6 157.47C867.139 157.464 865.685 157.683 864.29 158.12C862.959 158.545 861.659 159.063 860.4 159.67L859.06 156.36C860.492 155.647 861.989 155.075 863.53 154.65C865.234 154.182 866.993 153.947 868.76 153.95ZM874.6 169.03L870.21 169.21C866.623 169.35 864.094 169.937 862.62 170.97C861.905 171.45 861.326 172.106 860.939 172.875C860.551 173.644 860.369 174.5 860.41 175.36C860.356 176.045 860.463 176.733 860.723 177.369C860.984 178.005 861.391 178.57 861.91 179.02C863.069 179.86 864.481 180.277 865.91 180.2C868.199 180.295 870.44 179.536 872.2 178.07C873.82 176.65 874.64 174.52 874.64 171.68L874.6 169.03Z" fill="#58595B"></path></g><defs><linearGradient id="paint0_linear_599_12" x1="210.65" y1="88.2605" x2="73.4387" y2="147.949" gradientUnits="userSpaceOnUse"><stop stop-color="#47C6F3"></stop><stop offset="0.5" stop-color="#22B5E9"></stop><stop offset="1" stop-color="#0076A6"></stop></linearGradient><linearGradient id="paint1_linear_599_12" x1="176.34" y1="165.61" x2="113.77" y2="194.36" gradientUnits="userSpaceOnUse"><stop stop-color="#1486C8"></stop><stop offset="0.5" stop-color="#1A75BA"></stop><stop offset="1" stop-color="#164780"></stop></linearGradient><linearGradient id="paint2_linear_599_12" x1="109.07" y1="20.03" x2="27.9001" y2="48.78" gradientUnits="userSpaceOnUse"><stop stop-color="#1486C8"></stop><stop offset="0.5" stop-color="#1A75BA"></stop><stop offset="1" stop-color="#164780"></stop></linearGradient><linearGradient id="paint3_linear_599_12" x1="160.35" y1="33.7301" x2="21.6698" y2="90.3901" gradientUnits="userSpaceOnUse"><stop stop-color="#1486C8"></stop><stop offset="0.5" stop-color="#1A75BA"></stop><stop offset="1" stop-color="#164780"></stop></linearGradient><clipPath id="clip0_599_12"><rect width="1024.57" height="209.04" fill="white"></rect></clipPath></defs></svg>